<?xml version="1.0" encoding="UTF-8" standalone="no"?>
<svg width="166px" height="95px" viewBox="0 0 166 95" version="1.1" xmlns="http://www.w3.org/2000/svg" xmlns:xlink="http://www.w3.org/1999/xlink">
    <!-- Generator: Sketch 49 (51002) - http://www.bohemiancoding.com/sketch -->
    <title>Core Module</title>
    <desc>Created with Sketch.</desc>
    <defs>
        <rect id="path-1" x="0" y="0" width="158" height="87" rx="4"></rect>
        <filter x="-4.4%" y="-5.7%" width="108.9%" height="116.1%" filterUnits="objectBoundingBox" id="filter-2">
            <feOffset dx="0" dy="2" in="SourceAlpha" result="shadowOffsetOuter1"></feOffset>
            <feGaussianBlur stdDeviation="2" in="shadowOffsetOuter1" result="shadowBlurOuter1"></feGaussianBlur>
            <feComposite in="shadowBlurOuter1" in2="SourceAlpha" operator="out" result="shadowBlurOuter1"></feComposite>
            <feColorMatrix values="0 0 0 0 0   0 0 0 0 0   0 0 0 0 0  0 0 0 0.5 0" type="matrix" in="shadowBlurOuter1"></feColorMatrix>
        </filter>
    </defs>
    <g id="Page-1" stroke="none" stroke-width="1" fill="none" fill-rule="evenodd">
        <g id="Artboard" transform="translate(-8.000000, -13.000000)">
            <g id="Core-Module" transform="translate(12.000000, 15.000000)">
                <g id="Human-Module">
                    <g id="BG">
                        <use fill="black" fill-opacity="1" filter="url(#filter-2)" xlink:href="#path-1"></use>
                        <use fill="#FFFFFF" fill-rule="evenodd" xlink:href="#path-1"></use>
                        <rect stroke="#C2C2C2" stroke-width="0.75" x="0.375" y="0.375" width="157.25" height="86.25" rx="4"></rect>
                    </g>
                    <text id="Happy" font-family="MaisonNeue-Medium, Maison Neue" font-size="12" font-weight="400" fill="#777777">
                        <tspan x="16" y="16">Wireframe</tspan>
                    </text>
                    <path d="M4,0 L11,0 L11,87 L4,87 C1.790861,87 2.705415e-16,85.209139 0,83 L0,4 C-2.705415e-16,1.790861 1.790861,4.05812251e-16 4,0 Z" id="Tab" fill="#C2C2C2"></path>
                    <path d="M151,0 L158,0 L158,87 L151,87 C148.790861,87 147,85.209139 147,83 L147,4 C147,1.790861 148.790861,4.05812251e-16 151,0 Z" id="Tab" fill="#C2C2C2" transform="translate(152.500000, 43.500000) rotate(180.000000) translate(-152.500000, -43.500000) "></path>
                    <circle id="Node" stroke="#777777" fill="#C2C2C2" transform="translate(153.000000, 43.000000) rotate(180.000000) translate(-153.000000, -43.000000) " cx="153" cy="43" r="2"></circle>
                </g>
            </g>
        </g>
    </g>
</svg>