<?xml version="1.0" encoding="UTF-8" standalone="no"?>
<svg width="158px" height="87px" viewBox="0 0 158 87" version="1.1" xmlns="http://www.w3.org/2000/svg" xmlns:xlink="http://www.w3.org/1999/xlink">
    <!-- Generator: Sketch 49 (51002) - http://www.bohemiancoding.com/sketch -->
    <title>Growth Module Copy 6</title>
    <desc>Created with Sketch.</desc>
    <defs>
        <rect id="path-1" x="0" y="0" width="158" height="87" rx="4"></rect>
    </defs>
    <g id="Page-1" stroke="none" stroke-width="1" fill="none" fill-rule="evenodd">
        <g id="Artboard-2" transform="translate(-529.000000, -1122.000000)">
            <g id="Human-Module" transform="translate(529.000000, 1122.000000)">
                <g>
                    <g id="BG">
                        <use fill="#6693E5" fill-rule="evenodd" xlink:href="#path-1"></use>
                        <rect stroke="#1F5CCB" stroke-width="0.75" x="0.375" y="0.375" width="157.25" height="86.25" rx="4"></rect>
                    </g>
                    <text id="Happy" font-family="MaisonNeue-Medium, Maison Neue" font-size="12" font-weight="400" fill="#16418F">
                        <tspan x="16" y="16">Trust</tspan>
                    </text>
                    <text id="EGO" font-family="Avenir-Book, Avenir" font-size="6" font-weight="normal" fill="#16418F">
                        <tspan x="17" y="26">HUMAN</tspan>
                    </text>
                    <path d="M4,0 L11,0 L11,87 L4,87 C1.790861,87 2.705415e-16,85.209139 0,83 L0,4 C-2.705415e-16,1.790861 1.790861,4.05812251e-16 4,0 Z" id="Tab" fill="#1F5CCB"></path>
                    <path d="M151,0 L158,0 L158,87 L151,87 C148.790861,87 147,85.209139 147,83 L147,4 C147,1.790861 148.790861,4.05812251e-16 151,0 Z" id="Tab" fill="#1F5CCB" transform="translate(152.500000, 43.500000) rotate(180.000000) translate(-152.500000, -43.500000) "></path>
                    <circle id="Node" stroke="#6693E5" fill="#1F5CCB" cx="5" cy="43" r="2"></circle>
                    <circle id="Node" stroke="#6693E5" fill="#1F5CCB" transform="translate(153.000000, 43.000000) rotate(180.000000) translate(-153.000000, -43.000000) " cx="153" cy="43" r="2"></circle>
                    <text id="Module-Text" font-family="MaisonNeue-Medium, Maison Neue" font-size="6" font-weight="400" fill="#16418F">
                        <tspan x="16" y="38">User trust is everything! Use this module to </tspan>
                        <tspan x="16" y="46">modify text and imagery to build confidence </tspan>
                        <tspan x="16" y="54">and trust in users.</tspan>
                    </text>
                </g>
            </g>
        </g>
    </g>
</svg>